<?xml version="1.0" encoding="utf-8"?>
<!DOCTYPE svg PUBLIC "-//W3C//DTD SVG 1.1//EN" "http://www.w3.org/Graphics/SVG/1.1/DTD/svg11.dtd">
<svg version="1.1" id="h5onLogo" xmlns="http://www.w3.org/2000/svg" xmlns:xlink="http://www.w3.org/1999/xlink" x="0px" y="0px"
	 width="512px" height="128px" viewBox="0 0 512 128" enable-background="new 0 0 512 128" xml:space="preserve">
<polyline fill="#E44D26" points="390.345,126.097 430.695,126.097 430.695,69.614 475.844,126.097 512,126.097 512,3.645 
	471.651,3.645 471.651,57.68 428.386,3.645 390.345,3.645 "/>
<g>
	<path fill="#E44D26" d="M312.872,95.28c28.118,38.604,55.639-10.775,55.598-40.47
		c-0.047-35.109-35.383-54.73-55.622-54.73c-32.485,0-63.421,27.036-63.421,64.028c0,41.117,35.463,63.892,63.421,63.892
		c-6.326-0.917-27.41-5.466-27.694-54.374c-0.191-33.077,10.715-46.292,27.647-40.479c0.381,0.142,18.681,7.413,18.681,31.161
		C331.481,87.956,312.872,95.28,312.872,95.28L312.872,95.28z"/>
	<path fill="#F16529" d="M312.838,33.121c-18.58-6.45-41.343,8.973-41.343,39.863
		c0,50.439,37.115,55.017,41.614,55.017c32.484,0,63.421-27.036,63.421-64.029c0-41.117-35.462-63.892-63.421-63.892
		c7.742-1.081,41.738,8.439,41.738,55.229c0,30.513-25.384,47.124-41.893,40.028c-0.38-0.143-18.681-7.414-18.681-31.162
		C294.274,40.527,312.838,33.121,312.838,33.121z"/>
</g>
<g>
	<polygon fill="#E44D26" points="142.372,115.47 132.471,3.645 241.256,3.645 231.345,115.452 186.796,127.89 	"/>
	<polygon fill="#F16529" points="186.864,118.382 222.861,108.333 231.33,12.787 186.864,12.787 	"/>
	<polygon fill="#EBEBEB" points="186.864,54.262 168.842,54.262 167.597,40.217 186.864,40.217 186.864,26.502 186.817,26.502 
		152.713,26.502 153.04,30.182 156.387,67.978 186.864,67.978 	"/>
	<polygon fill="#EBEBEB" points="186.864,89.88 186.803,89.897 171.636,85.772 170.667,74.834 163.295,74.834 156.996,74.834 
		158.903,96.368 186.8,104.167 186.864,104.151 	"/>
	<polygon fill="#FFFFFF" points="186.817,54.262 186.817,67.978 203.586,67.978 202.006,85.765 186.817,89.894 186.817,104.16 
		214.735,96.368 214.94,94.052 218.14,57.945 218.472,54.262 214.803,54.262 	"/>
	<polygon fill="#FFFFFF" points="186.817,26.502 186.817,35.021 186.817,40.185 186.817,40.217 219.668,40.217 219.668,40.217 
		219.712,40.217 219.985,37.136 220.605,30.182 220.932,26.502 	"/>
</g>
<polygon fill="#E44D26" points="0,126.097 40.714,126.097 40.714,82.159 77.842,82.159 77.842,126.097 118.556,126.097 
	118.556,3.645 77.842,3.645 77.842,46.849 40.714,46.849 40.714,3.645 0,3.645 "/>
</svg>
